HIERARCHY
ROOT Hips
{
	OFFSET 0.00000 0.00000 0.00000
	CHANNELS 6 Xposition Yposition Zposition Zrotation Yrotation Xrotation 
	JOINT LHipJoint
	{
		OFFSET 0 0 0
		CHANNELS 3 Zrotation Yrotation Xrotation
		JOINT LeftHip
		{
			OFFSET 1.77779 -1.88989 0.48267
			CHANNELS 3 Zrotation Yrotation Xrotation
			JOINT LeftKnee
			{
				OFFSET 2.53442 -6.96327 0.00000
				CHANNELS 3 Zrotation Yrotation Xrotation
				JOINT LeftAnkle
				{
					OFFSET 2.71068 -7.44755 0.00000
					CHANNELS 3 Zrotation Yrotation Xrotation
					JOINT LeftToe
					{
						OFFSET 0.17992 -0.49431 2.22524
						CHANNELS 3 Zrotation Yrotation Xrotation
						End Site
						{
							OFFSET 0.00000 -0.00000 1.14687
						}
					}
				}
			}
		}
	}
	JOINT RHipJoint
	{
		OFFSET 0 0 0
		CHANNELS 3 Zrotation Yrotation Xrotation
		JOINT RightHip
		{
			OFFSET -1.58469 -1.88989 0.48267
			CHANNELS 3 Zrotation Yrotation Xrotation
			JOINT RightKnee
			{
				OFFSET -2.60386 -7.15404 0.00000
				CHANNELS 3 Zrotation Yrotation Xrotation
				JOINT RightAnkle
				{
					OFFSET -2.73334 -7.50979 0.00000
					CHANNELS 3 Zrotation Yrotation Xrotation
					JOINT RightToe
					{
						OFFSET -0.25618 -0.70384 2.21822
						CHANNELS 3 Zrotation Yrotation Xrotation
						End Site
						{
							OFFSET -0.00000 -0.00000 1.16381
						}
					}
				}
			}
		}
	}
	JOINT lowerback
	{
		OFFSET 0 0 0
		CHANNELS 3 Zrotation Yrotation Xrotation
		JOINT Chest
		{
			OFFSET 0.03410 2.01612 -0.22230
			CHANNELS 3 Zrotation Yrotation Xrotation
			JOINT Chest2
			{
				OFFSET 0.03465 2.03012 0.00937
				CHANNELS 3 Zrotation Yrotation Xrotation
				JOINT lowerneck
				{
					OFFSET 0 0 0
					CHANNELS 3 Zrotation Yrotation Xrotation
					JOINT Neck
					{
						OFFSET -0.00219 1.70459 0.20857
						CHANNELS 3 Zrotation Yrotation Xrotation
						JOINT Head
						{
							OFFSET 0.02518 1.72339 -0.22179
							CHANNELS 3 Zrotation Yrotation Xrotation
							End Site
							{
								OFFSET 0.00282 1.74122 -0.09823
							}
						}
					}
				}
				JOINT LeftCollar
				{
					OFFSET 0 0 0
					CHANNELS 3 Zrotation Yrotation Xrotation
					JOINT LeftShoulder
					{
						OFFSET 3.36358 1.00547 -0.37661
CHANNELS 3 Zrotation Xrotation Yrotation
						JOINT LeftElbow
						{
OFFSET 0 -5.065070 0.000000
CHANNELS 3 Zrotation Xrotation Yrotation
							JOINT LeftWrist
							{
OFFSET 0 -3.601960 0.000000
CHANNELS 3 Zrotation Xrotation Yrotation
								JOINT lhand
								{
									OFFSET 0 0 0
CHANNELS 3 Zrotation Xrotation Yrotation
									JOINT LFingers
									{
OFFSET 0 -0.450350 0.000000
CHANNELS 3 Zrotation Xrotation Yrotation
										End Site
										{
OFFSET 0 -0.363080 0.000000
										}
									}
								}
								JOINT LThumb
								{
OFFSET 0 0.000000 0.000000
CHANNELS 3 Zrotation Xrotation Yrotation
									End Site
									{
OFFSET 0 -0.368620 0.368620
									}
								}
							}
						}
					}
				}
				JOINT RightCollar
				{
					OFFSET 0 0 0
					CHANNELS 3 Zrotation Yrotation Xrotation
					JOINT RightShoulder
					{
						OFFSET -3.50159 0.80383 -0.71526
CHANNELS 3 Zrotation Xrotation Yrotation
						JOINT RightElbow
						{
OFFSET 0 -5.363940 0.000000
CHANNELS 3 Zrotation Xrotation Yrotation
							JOINT RightWrist
							{
OFFSET 0 -3.580350 0.000000
CHANNELS 3 Zrotation Xrotation Yrotation
								JOINT rhand
								{
									OFFSET 0 0 0
CHANNELS 3 Zrotation Xrotation Yrotation
									JOINT RFingers
									{
OFFSET 0 -0.663750 0.000000
CHANNELS 3 Zrotation Xrotation Yrotation
										End Site
										{
OFFSET 0 -0.535130 0.000000
										}
									}
								}
								JOINT RThumb
								{
OFFSET 0 0.000000 0.000000
CHANNELS 3 Zrotation Xrotation Yrotation
									End Site
									{
OFFSET 0 -0.543300 0.543300
									}
								}
							}
						}
					}
				}
			}
		}
	}
}
MOTION
Frames: 12
Frame Time: .0083333
4.7116 17.9487 12.7178 0.2785 -3.2001 -5.7038 0.0000 0.0000 0.0000 -23.9780 -6.3875 -5.5974 2.4042 9.6617 27.8880 0.4802 -4.5591 -12.3287 0.0000 -0.0317 -0.0871 0.0000 0.0000 0.0000 22.0223 7.2009 -17.7795 -14.5754 -19.2794 73.9544 0.1830 -7.5989 -1.9793 -0.4903 -4.4899 12.4591 -1.1709 0.7424 10.7707 0.6746 0.8820 0.3439 1.2296 0.4739 -5.7145 -1.8255 -3.0510 -15.8123 0.5522 -3.9242 21.4972 -0.0046 -1.9189 9.4413 0.0000 0.0000 0.0000 5.4793 5.8509 -23.4671 12.5441 -20.6155 2.2902 28.2227 8.6696 -23.2372 0.0 0.0 0.0 -7.1250 0.0 0.0 -0.9871 55.957 0.2654 0.0000 0.0000 0.0000 -0.4016 -1.7849 3.3966 -12.9171 -21.1656 -2.4233 -18.9509 -0.4984 -22.2307 0.0 0.0 0.0 7.1250 0.0 -0.0 6.2237 6.7237 5.4854
4.7095 17.9397 12.8837 0.3101 -3.1637 -5.6297 0.0000 0.0000 0.0000 -24.1431 -6.3992 -5.0191 2.4239 9.6981 28.0046 0.5216 -4.3558 -12.8548 0.0033 0.3694 1.0150 0.0000 0.0000 0.0000 21.9049 7.6782 -18.8682 -14.3992 -19.2307 73.4200 0.1319 -6.5404 -3.6924 -0.4210 -4.1646 11.5403 -1.2099 0.6820 10.8559 0.6422 0.7940 0.3334 1.2306 0.4316 -5.7708 -1.6569 -3.0678 -15.7398 0.4464 -3.9650 21.3042 -0.0710 -1.9373 9.3546 -0.0000 0.0000 0.0000 5.9013 5.4281 -23.9435 12.6724 -20.8053 2.3356 27.6661 7.9256 -22.6691 0.0 0.0 0.0 -7.1250 0.0 0.0 -1.4320 55.2223 0.3594 -0.0000 0.0000 0.0000 -0.186 -1.5952 3.4875 -12.9668 -21.2386 -2.4413 -19.2424 -0.6591 -22.1986 0.0 0.0 0.0 7.1250 0.0 -0.0 6.0379 6.7136 5.321
4.7101 17.9244 13.0537 0.3503 -3.1265 -5.6802 0.0000 0.0000 0.0000 -24.3236 -6.1911 -4.3862 2.4281 9.7060 28.0300 0.5633 -4.2829 -13.3678 0.0122 0.7125 1.9581 0.0000 0.0000 0.0000 21.7912 8.0917 -19.7775 -14.1686 -19.1644 72.7186 0.0823 -5.7984 -5.0931 -0.3286 -3.6845 10.1906 -1.3255 0.5740 10.7511 0.7365 0.6428 0.5001 1.4194 0.3589 -5.5342 -1.6870 -2.9784 -15.8568 0.3528 -3.8047 21.1107 -0.0779 -1.8755 9.3057 0.0000 0.0000 0.0000 6.0462 5.0882 -24.2279 12.9951 -21.28 2.4515 27.6277 8.9138 -22.5235 0.0 0.0 0.0 -7.1250 0.0 0.0 -1.4332 55.0567 0.354 0.0000 0.0000 0.0000 -0.239 -1.5823 3.7125 -12.9713 -21.2452 -2.4429 -19.0289 -0.5256 -21.8574 0.0 0.0 0.0 7.1250 0.0 -0.0 6.1469 7.0971 5.3722
4.7154 17.9101 13.2288 0.6394 -3.1909 -5.5969 0.0000 0.0000 0.0000 -24.7922 -5.9187 -3.8652 2.4317 9.7126 28.0509 0.6052 -4.2232 -13.8687 0.0218 0.9522 2.6173 0.0000 0.0000 0.0000 21.3193 8.5922 -20.8565 -13.8961 -19.0822 71.8868 0.0326 -5.1755 -6.2122 -0.2552 -3.2503 8.9764 -1.4799 0.5670 10.6112 0.6538 0.6117 0.4485 1.4253 0.3467 -5.5095 -1.7276 -2.9231 -15.6551 0.3778 -3.7251 20.9704 -0.0480 -1.8403 9.2203 -0.0000 -0.0000 0.0000 6.3552 5.0689 -25.0237 13.3329 -21.773 2.5755 28.5802 10.0236 -22.9673 0.0 0.0 0.0 -7.1250 0.0 0.0 -0.5235 55.7412 0.138 -0.0000 -0.0000 0.0000 -0.2035 -1.1435 3.9738 -13.0260 -21.3254 -2.4627 -19.012 -1.1577 -22.945 0.0 0.0 0.0 7.1250 0.0 -0.0 6.2403 5.9789 5.5904
4.7148 17.8964 13.4075 0.9458 -3.0736 -5.5979 0.0000 0.0000 0.0000 -25.2797 -5.7322 -3.1706 2.4331 9.7152 28.0595 0.6583 -4.2596 -14.4762 0.0289 1.0973 3.0165 0.0000 0.0000 0.0000 20.8409 8.8056 -21.7764 -13.5635 -18.9763 70.8668 -0.0242 -4.7175 -7.5264 -0.1842 -2.7640 7.6223 -1.8138 0.5066 10.7243 0.6023 0.4855 0.3214 1.5785 0.2954 -5.7048 -1.7061 -2.8488 -15.3999 0.2877 -3.6109 20.9441 -0.0638 -1.7967 9.1605 0.0000 0.0000 0.0000 6.6776 5.2425 -27.0698 13.2042 -21.5857 2.5279 31.8788 -0.0121 -12.3485 0.0 0.0 0.0 -7.1250 0.0 0.0 4.2939 44.3938 0.0644 0.0000 0.0000 0.0000 -0.165 -0.7637 4.0089 -12.9293 -21.1836 -2.4277 -19.4252 -1.7658 -23.9769 0.0 0.0 0.0 7.1250 0.0 -0.0 6.0696 4.8524 5.5664
4.7043 17.8813 13.5856 1.0798 -2.9842 -5.6604 0.0000 0.0000 0.0000 -25.5162 -5.4309 -2.4947 2.4322 9.7136 28.0540 0.7117 -4.2585 -15.0664 0.0274 1.0695 2.9400 0.0000 0.0000 0.0000 20.6405 9.0303 -22.5097 -13.1809 -18.8465 69.6865 -0.0808 -4.5560 -8.8747 -0.1190 -2.2239 6.1249 -2.0814 0.4323 10.7169 0.6288 0.3561 0.4482 1.7775 0.2365 -5.5638 -1.7905 -2.8618 -15.5510 0.2301 -3.5890 20.8146 -0.0681 -1.7992 9.1440 0.0000 0.0000 0.0000 6.9772 4.6542 -26.413 13.5405 -22.074 2.653 29.1948 5.8764 -20.3153 0.0 0.0 0.0 -7.1250 0.0 0.0 0.7448 52.9594 -0.1459 0.0000 0.0000 0.0000 -0.1277 -0.7335 4.1589 -12.8910 -21.1273 -2.4139 -19.3579 -1.8667 -24.2194 0.0 0.0 0.0 7.1250 0.0 -0.0 6.1324 4.6137 5.6524
4.6966 17.8545 13.7535 1.0307 -3.0561 -5.6196 0.0000 0.0000 0.0000 -25.5284 -5.1502 -2.0735 2.4243 9.6989 28.0072 0.7567 -4.2119 -15.5525 0.0127 0.7264 1.9962 0.0000 0.0000 0.0000 20.6482 9.4963 -23.4056 -12.7727 -18.6986 68.4181 -0.1126 -4.6606 -9.7208 -0.1033 -2.0724 5.7059 -2.0883 0.3803 10.7417 0.7071 0.2906 0.5353 1.8734 0.2036 -5.4834 -2.0080 -2.8608 -15.7839 0.3437 -3.5515 20.6939 0.0088 -1.7852 9.1516 0.0000 0.0000 0.0000 7.1901 4.0677 -26.2332 13.7986 -22.446 2.7507 27.4689 8.5678 -25.8805 0.0 0.0 0.0 -7.1250 0.0 0.0 -2.6839 58.6295 0.8948 0.0000 0.0000 0.0000 -0.1652 -0.6772 4.4295 -12.9139 -21.1609 -2.4221 -19.0035 -2.0541 -24.8506 0.0 0.0 0.0 7.1250 0.0 -0.0 6.4059 4.0225 5.9789
4.6934 17.8319 13.9229 1.0358 -2.8947 -5.5306 0.0000 0.0000 0.0000 -25.6443 -5.1557 -1.6271 2.4110 9.6743 27.9282 0.7525 -4.1784 -15.5103 0.0344 1.1965 3.2896 0.0000 0.0000 0.0000 20.5081 9.6647 -24.3745 -12.3212 -18.5232 67.0034 -0.1507 -4.7319 -10.5891 -0.0781 -1.8022 4.9594 -2.1465 0.2525 10.8101 0.7695 0.1155 0.4900 1.9990 0.1211 -5.5613 -1.9397 -2.7524 -15.7047 0.1907 -3.3817 20.4461 -0.0302 -1.7179 9.0451 0.0000 0.0000 0.0000 7.425 3.8557 -26.5111 14.1647 -22.9697 2.8921 27.0905 9.041 -28.5869 0.0 0.0 0.0 -7.1250 0.0 0.0 -4.2740 61.3994 1.7083 0.0000 0.0000 0.0000 -0.2023 -0.5367 4.4583 -12.8554 -21.0749 -2.401 -18.9047 -1.6742 -23.9506 0.0 0.0 0.0 7.1250 0.0 -0.0 6.3888 4.9617 5.8495
4.6909 17.8230 14.0938 1.3330 -2.6565 -5.4528 0.0000 0.0000 0.0000 -26.0840 -5.1137 -0.9834 2.3919 9.6387 27.8145 0.8006 -4.2490 -16.0073 0.0567 1.5364 4.2260 0.0000 0.0000 0.0000 19.9926 9.6967 -25.2610 -11.8169 -18.3122 65.4073 -0.2294 -4.6711 -11.9846 -0.0064 0.5176 -1.4222 -2.4787 0.1381 10.7432 0.7063 -0.0788 0.5828 2.1495 0.0301 -5.4161 -1.8218 -2.6688 -15.9089 0.0859 -3.2649 20.2470 -0.0721 -1.6647 9.0084 0.0000 0.0000 0.0000 7.7326 3.5035 -26.9864 14.5278 -23.4841 3.0353 27.6883 7.4732 -26.4675 0.0 0.0 0.0 -7.1250 0.0 0.0 -2.6568 59.3073 0.9289 0.0000 0.0000 0.0000 -0.0909 -0.3373 4.8443 -13.0995 -21.4328 -2.4895 -19.061 -1.827 -23.4408 0.0 0.0 0.0 7.1250 0.0 -0.0 6.2497 5.4613 5.6611
4.6877 17.8116 14.2624 1.7040 -2.4286 -5.3663 0.0000 0.0000 0.0000 -26.5782 -4.8487 -0.2383 2.3498 9.5595 27.5618 0.8765 -4.3463 -16.7636 0.0508 1.4549 4.0015 0.0000 0.0000 0.0000 19.3934 9.8354 -26.0576 -11.2671 -18.0633 63.6459 -0.2777 -4.8311 -12.9166 -0.1764 2.7051 -7.4589 -2.8729 0.0397 10.8362 0.6372 -0.2636 0.6362 2.3282 -0.0530 -5.4005 -2.0825 -2.6486 -16.3234 0.3559 -3.2214 20.2689 0.0624 -1.6329 9.1012 0.0000 0.0000 0.0000 8.0038 3.1171 -27.5391 14.7515 -23.7988 3.125 29.0409 5.4022 -21.9479 0.0 0.0 0.0 -7.1250 0.0 0.0 0.2304 54.7253 -0.055 0.0000 0.0000 0.0000 -0.0474 -0.121 5.3868 -13.3689 -21.8253 -2.5888 -19.4698 -2.6665 -24.0 0.0 0.0 0.0 7.1250 0.0 -0.0 6.0441 4.8215 5.5463
4.6816 17.7956 14.4356 1.7417 -2.3393 -5.2604 0.0000 0.0000 0.0000 -26.6933 -4.5530 0.5142 2.2857 9.4375 27.1736 0.9319 -4.3524 -17.3019 0.0413 1.3119 3.6073 0.0000 0.0000 0.0000 19.2242 10.0785 -26.6860 -10.6555 -17.7623 61.6577 -0.2307 -5.5034 -12.7531 -0.1016 2.0554 -5.6587 -2.8982 -0.0310 11.0578 0.6322 -0.3687 0.5385 2.3561 -0.0992 -5.6210 -2.2252 -2.6733 -16.5430 0.4597 -3.2372 20.3285 0.1159 -1.6389 9.1669 0.0000 0.0000 0.0000 8.3333 2.8664 -27.767 14.9624 -24.0938 3.2106 28.6416 6.0187 -23.3675 0.0 0.0 0.0 -7.1250 0.0 0.0 -0.5649 56.1902 0.155 0.0000 0.0000 0.0000 0.0666 0.0991 5.089 -13.3531 -21.8024 -2.583 -19.446 -2.0528 -22.7143 0.0 0.0 0.0 7.1250 0.0 -0.0 5.9507 6.1506 5.3082
4.6760 17.7927 14.6111 1.7075 -2.3255 -5.2311 0.0000 0.0000 0.0000 -26.7311 -4.2193 1.3197 2.2197 9.3094 26.7682 0.9722 -4.3203 -17.6880 0.0342 1.1941 3.2829 0.0000 0.0000 0.0000 19.1738 10.1850 -27.0970 -10.0104 -17.4157 59.5231 -0.1800 -6.3657 -12.7602 -0.0068 0.5309 -1.4587 -2.8464 -0.0718 11.1979 0.6557 -0.4195 0.5122 2.3612 -0.1231 -5.7244 -2.1618 -2.6310 -16.5923 0.3521 -3.1673 20.1783 0.0780 -1.6130 9.1199 0.0000 -0.0000 0.0000 8.6127 2.5877 -27.9194 15.1999 -24.4239 3.3082 27.3706 6.4562 -25.6322 0.0 0.0 0.0 -7.1250 0.0 0.0 -2.7032 58.3416 0.8826 0.0000 -0.0000 0.0000 0.1439 0.4987 5.1461 -13.5036 -22.0206 -2.6391 -19.0492 -1.7452 -21.4954 0.0 0.0 0.0 7.1250 0.0 -0.0 6.1079 7.4677 5.2932
